<svg xmlns="http://www.w3.org/2000/svg" width="23.36cm" height="4.35cm" viewBox="0 0 662.12 123.28"><title>PUB LOGO_full colour</title><path d="M516.59,255.44a10.32,10.32,0,0,0-4.43-1c-1.9,0-4.14.67-4.14,3.15,0,4.54,10.17,3.49,10.17,11.28,0,5.05-3.9,7-8.64,7a15.8,15.8,0,0,1-4.85-1l.34-3.15A14.47,14.47,0,0,0,510,273c1.93,0,4.65-1.08,4.65-3.86,0-5.28-10.17-3.83-10.17-11.18,0-4.2,3.32-6.44,7.59-6.44a15.7,15.7,0,0,1,5.05.85Z" transform="translate(-89.6 -236)" style="fill:#24388d"/><path d="M522,251.88h3.39v23.65H522Z" transform="translate(-89.6 -236)" style="fill:#24388d"/><path d="M530.49,251.88h4.61l10.43,19h.07v-19H549v23.65h-4.34l-10.71-19.45h-.06v19.45h-3.39Z" transform="translate(-89.6 -236)" style="fill:#24388d"/><path d="M572.09,256.08a10.91,10.91,0,0,0-6.5-1.62c-5.46,0-9.08,4-9.08,9.24,0,5.56,4,9.25,8.91,9.25a14.08,14.08,0,0,0,3.79-.4v-7.19h-5v-2.77h8.37v12.29a21.53,21.53,0,0,1-7.21,1.05c-7.49,0-12.47-4.81-12.47-12.33,0-7.28,5.28-12.13,12.5-12.13a17.69,17.69,0,0,1,6.94,1.19Z" transform="translate(-89.6 -236)" style="fill:#24388d"/><path d="M585.24,251.88h3.56l10,23.65H595.1l-2.41-6H581.11l-2.41,6h-3.55Zm1.66,3.18-4.71,11.73h9.42Z" transform="translate(-89.6 -236)" style="fill:#24388d"/><path d="M601.17,251.88h6.2c4.84,0,8.87,1.69,8.87,7.08s-4.1,7.11-8.36,7.11h-3.32v9.46h-3.39Zm3.39,11.21h3.35c2.1,0,4.74-1,4.74-4.16s-3.11-4.07-5.22-4.07h-2.87Z" transform="translate(-89.6 -236)" style="fill:#24388d"/><path d="M629.53,251.47c7.18,0,11.38,5.22,11.38,12.23,0,7.19-4.17,12.23-11.38,12.23s-11.39-5-11.39-12.23C618.14,256.69,622.34,251.47,629.53,251.47Zm0,21.48c5.45,0,7.79-4.54,7.79-9.25s-2.58-9.28-7.79-9.24-7.8,4.43-7.8,9.24S624.07,273,629.53,273Z" transform="translate(-89.6 -236)" style="fill:#24388d"/><path d="M644.67,251.88h5.8c4.67,0,9.18.75,9.18,6.4a5.51,5.51,0,0,1-4.88,5.39v.07c1.05.4,1.56.91,2.3,2.37l4.48,9.42h-3.87l-3.62-8.2c-1-2.31-2.17-2.31-4-2.31h-2v10.51h-3.39ZM648.06,262h2.88c3.22,0,5.12-1.42,5.12-3.69s-1.63-3.49-4.75-3.49h-3.25Z" transform="translate(-89.6 -236)" style="fill:#24388d"/><path d="M664.9,251.88h13.25v3h-9.86v6.91h9v3h-9v7.8h9.86v3H664.9Z" transform="translate(-89.6 -236)" style="fill:#24388d"/><path d="M683.57,251.88h3.8l-3,8.3h-2.91Z" transform="translate(-89.6 -236)" style="fill:#24388d"/><path d="M702,255.44a10.4,10.4,0,0,0-4.44-1c-1.9,0-4.13.67-4.13,3.15,0,4.54,10.16,3.49,10.16,11.28,0,5.05-3.9,7-8.64,7a15.68,15.68,0,0,1-4.84-1l.33-3.15A14.53,14.53,0,0,0,695.4,273c1.93,0,4.64-1.08,4.64-3.86,0-5.28-10.16-3.83-10.16-11.18,0-4.2,3.32-6.44,7.58-6.44a15.65,15.65,0,0,1,5,.85Z" transform="translate(-89.6 -236)" style="fill:#24388d"/><path d="M505.82,285.61h4.61l10.43,19h.07v-19h3.39v23.65H520l-10.7-19.44h-.07v19.44h-3.39Z" transform="translate(-89.6 -236)" style="fill:#24388d"/><path d="M537,285.61h3.56l10,23.65h-3.69l-2.41-6H532.83l-2.41,6h-3.56Zm1.66,3.19-4.71,11.72h9.42Z" transform="translate(-89.6 -236)" style="fill:#24388d"/><path d="M555.29,288.6h-7.35v-3H566v3h-7.35v20.66h-3.39Z" transform="translate(-89.6 -236)" style="fill:#24388d"/><path d="M568.57,285.61H572v23.65h-3.39Z" transform="translate(-89.6 -236)" style="fill:#24388d"/><path d="M587.31,285.21c7.18,0,11.38,5.22,11.38,12.23,0,7.18-4.16,12.23-11.38,12.23s-11.39-5.05-11.39-12.23C575.92,290.43,580.13,285.21,587.31,285.21Zm0,21.48c5.45,0,7.79-4.54,7.79-9.25s-2.57-9.28-7.79-9.25-7.79,4.44-7.79,9.25S581.85,306.69,587.31,306.69Z" transform="translate(-89.6 -236)" style="fill:#24388d"/><path d="M602.63,285.61h4.6l10.44,19h.07v-19h3.38v23.65h-4.33l-10.71-19.44H606v19.44h-3.38Z" transform="translate(-89.6 -236)" style="fill:#24388d"/><path d="M633.76,285.61h3.56l10,23.65h-3.69l-2.4-6H629.63l-2.41,6h-3.55Zm1.66,3.19-4.71,11.72h9.42Z" transform="translate(-89.6 -236)" style="fill:#24388d"/><path d="M649.86,285.61h3.39v20.67h9.89v3H649.86Z" transform="translate(-89.6 -236)" style="fill:#24388d"/><path d="M502.91,319.35h3.72l5.66,20.26h.07l5-20.26h4.81l5.11,20.26h.07l5.66-20.26h3.59L529.37,343H525l-5.15-20.67h-.07L514.6,343h-4.54Z" transform="translate(-89.6 -236)" style="fill:#24388d"/><path d="M545.77,319.35h3.56l10,23.65h-3.7l-2.4-6H541.64l-2.4,6h-3.56Zm1.66,3.18-4.7,11.73h9.41Z" transform="translate(-89.6 -236)" style="fill:#24388d"/><path d="M564.11,322.33h-7.36v-3h18.1v3H567.5V343h-3.39Z" transform="translate(-89.6 -236)" style="fill:#24388d"/><path d="M577.56,319.35h13.25v3H581v6.91h9v3h-9V340h9.86v3H577.56Z" transform="translate(-89.6 -236)" style="fill:#24388d"/><path d="M595.18,319.35H601c4.68,0,9.18.74,9.18,6.4a5.51,5.51,0,0,1-4.88,5.39v.07c1.05.4,1.56.91,2.31,2.37l4.47,9.42h-3.86l-3.63-8.2c-1-2.31-2.17-2.31-4-2.31h-2V343h-3.39Zm3.39,10.16h2.87c3.22,0,5.12-1.42,5.12-3.69s-1.62-3.49-4.74-3.49h-3.25Z" transform="translate(-89.6 -236)" style="fill:#24388d"/><path d="M631.3,319.35h3.55l10,23.65h-3.69l-2.41-6H627.16l-2.4,6H621.2Zm1.66,3.18-4.71,11.73h9.42Z" transform="translate(-89.6 -236)" style="fill:#24388d"/><path d="M665.38,323.55a10.91,10.91,0,0,0-6.5-1.63c-5.46,0-9.08,4-9.08,9.25,0,5.56,4,9.25,8.91,9.25a14.2,14.2,0,0,0,3.79-.4v-7.19h-5v-2.78h8.37v12.3a21.56,21.56,0,0,1-7.22,1c-7.48,0-12.46-4.81-12.46-12.33,0-7.28,5.28-12.13,12.5-12.13a17.73,17.73,0,0,1,6.94,1.19Z" transform="translate(-89.6 -236)" style="fill:#24388d"/><path d="M671.21,319.35h13.25v3H674.6v6.91h9v3h-9V340h9.86v3H671.21Z" transform="translate(-89.6 -236)" style="fill:#24388d"/><path d="M689,319.35h4.61l10.43,19h.07v-19h3.39V343h-4.34l-10.7-19.45h-.07V343H689Z" transform="translate(-89.6 -236)" style="fill:#24388d"/><path d="M729,323.25a9.42,9.42,0,0,0-4.88-1.33c-5.45,0-9.08,3.93-9.08,9.25,0,5.56,4,9.25,8.91,9.25a11.63,11.63,0,0,0,5.15-1.15l.2,3.29a14.82,14.82,0,0,1-5.38.84c-7.49,0-12.47-4.81-12.47-12.33,0-7.28,5.29-12.13,12.5-12.13a13,13,0,0,1,5.32,1Z" transform="translate(-89.6 -236)" style="fill:#24388d"/><path d="M739.11,333.1l-9.25-13.75h4l7,10.6,6.87-10.6h4L742.5,333.1V343h-3.39Z" transform="translate(-89.6 -236)" style="fill:#24388d"/><path d="M263.44,251.34H224.88v91.92h23.56V267c4.07,0,8.73,0,12.72,0,6.75,0,14.31-1.11,16.63,7.73,4.42,16.88-10,27.4-27.15,29.57.06.55,2.06,1,2.15,1,2.79.7,8.14,1.21,17.86,1,35.85-.67,32.05-26.33,29.78-35.06-3.57-13.76-17.33-20-32-20Z" transform="translate(-89.6 -236)" style="fill:#24388d"/><path d="M459.91,284.48c1.78-3.51,2.21-10.25.85-13.14s-4.47-4.94-8.77-4.94H435.27v76.9H412v-92h45.66a35,35,0,0,1,4,.2c13,1.32,19.39,7.61,21.81,18.86s-1.45,20.05-10.25,23.54l-1.58.59a7.78,7.78,0,0,0,1.45.49c12.72,4,17.41,11.83,17.4,23,0,6.87-2.7,27.92-50.7,24.94-.11-.18.26-.2.64-.35,10.58-3.15,23.16-8.92,25.89-17.24,2.06-6.29,3.44-12.9-2.82-20.76-5.24-6.57-10-9.48-19.81-11.52-.08,0-.28-.16.06-.3,2.16-.69,13.69-3.4,16.2-8.33Z" transform="translate(-89.6 -236)" style="fill:#24388d"/><path d="M343.94,329.78a23.47,23.47,0,0,0,12.78,3.45c9.41,0,15.84-4.33,17.31-10.92,1.51-6.74.33-25.75.54-71h23.59v60.89c0,14.44-11.83,30.54-32.75,30.54a23.57,23.57,0,0,1-21.31-12.42l-.16-.57Z" transform="translate(-89.6 -236)" style="fill:#24388d"/><path d="M362.24,348.64a34.92,34.92,0,0,1-7.1.47c-23.48,0-42.83-17.53-42.83-37.49V251.43h24v69.34A24.08,24.08,0,0,0,341,335.36a28.43,28.43,0,0,0,4.87,4.83c4.05,3.16,10.22,6.29,19.67,7.61-1.31.35-2.25.63-3.29.84Z" transform="translate(-89.6 -236)" style="fill:#24388d"/><path d="M204.94,311.62c-11.12,19.64-23.7,29.81-34.8,35-19.18,8.92-30.59,2.36-30.55,2.25,2,.76,16.7-2.08,24.09-6.84,38.86-25.1,42-71.44,22.26-88.72-18.24-15.95-48.9-7.55-67.66-1.1,23.48-17.33,47.95-18,62.16-14.47,38.75,9.68,35.81,53.94,24.5,73.9Z" transform="translate(-89.6 -236)" style="fill:#006db7"/><path d="M112.5,320.21c2.36,18.14,17.28,24.83,32.06,22.89,19.09-2.49,39.74-27.18,40.78-50.16.94-20.66-13-35.46-29.48-34.18,12.3,2,20.3,14,18.85,30.31-1.79,20.23-17.34,39.58-34.73,43.23-12.1,2.53-23.23-1.57-27.48-12.09Z" transform="translate(-89.6 -236)" style="fill:#24388d"/><path d="M178.12,259a38.77,38.77,0,0,0-34.26.33C99.7,281.93,86.59,351.63,157,357c-49.74,11.48-81.46-20.85-61.17-66.49,4.35-9.8,18.67-28.91,44.32-36.22,10.15-2.9,28.11-5.28,38,4.79Z" transform="translate(-89.6 -236)" style="fill:#008295"/></svg>